<svg xmlns="http://www.w3.org/2000/svg" viewBox="0 0 280.39 238.53"><defs><style>.cls-1{fill:#0005ff;stroke:#0005ff;stroke-miterlimit:10;stroke-width:2px;}</style></defs><title>m-build_1</title><g id="Layer_2" data-name="Layer 2"><g id="Layer_1-2" data-name="Layer 1"><path class="cls-1" d="M253.93,203.28h-53a1.81,1.81,0,0,1-1.81-1.82V95.68a1.82,1.82,0,0,1,3.63,0v104h49.38v-142a1.82,1.82,0,1,1,3.63,0V201.46A1.81,1.81,0,0,1,253.93,203.28Zm-111.18,0H119.19a1.81,1.81,0,0,1-1.81-1.82V139.28a1.82,1.82,0,0,1,3.63,0v60.37h19.93V54.11a1.81,1.81,0,0,1,1.81-1.81h58.17a1.81,1.81,0,0,1,1.82,1.81V65.42a1.82,1.82,0,1,1-3.63,0V55.93H144.57V201.46A1.81,1.81,0,0,1,142.75,203.28Zm-57.2,0H14a1.81,1.81,0,0,1-1.81-1.82V162.17a1.82,1.82,0,1,1,3.63,0v37.48h68V76.22a1.82,1.82,0,0,1,1.81-1.82h33.64A1.83,1.83,0,0,1,121,76.22V109a1.82,1.82,0,1,1-3.63,0V78h-30V201.46A1.81,1.81,0,0,1,85.55,203.28ZM14,133.73a1.82,1.82,0,0,1-1.81-1.82V12.09A1.81,1.81,0,0,1,14,10.28H277.57a1.82,1.82,0,0,1,1.82,1.81v26a1.82,1.82,0,0,1-1.82,1.82h-13a1.82,1.82,0,1,1,0-3.63h11.15V13.91h-260v118A1.82,1.82,0,0,1,14,133.73Z"/><path class="cls-1" d="M102.37,197.28a1.81,1.81,0,0,1-1.81-1.81V89.33a1.82,1.82,0,0,1,3.63,0V195.47A1.81,1.81,0,0,1,102.37,197.28Z"/><path class="cls-1" d="M102.54,237.28a1.78,1.78,0,0,1-1-.31,1.82,1.82,0,0,1-.51-2.52L117.38,210V78h-30V210a1.81,1.81,0,0,1-3.13,1.82l-.2-.29a1.76,1.76,0,0,1-.3-1V76.22a1.82,1.82,0,0,1,1.81-1.82h33.64A1.83,1.83,0,0,1,121,76.22v134.3a1.77,1.77,0,0,1-.31,1l-16.65,24.95A1.82,1.82,0,0,1,102.54,237.28Z"/><path class="cls-1" d="M119.19,78H85.57a1.82,1.82,0,0,1-1.81-1.82V66.33a1.82,1.82,0,0,1,1.81-1.82h33.62A1.83,1.83,0,0,1,121,66.33v9.89A1.83,1.83,0,0,1,119.19,78ZM87.39,74.4h30V68.14h-30Z"/><path class="cls-1" d="M119.19,68.15H85.57a1.82,1.82,0,0,1-1.81-1.82V44.93a4.66,4.66,0,0,1,4.64-4.67h26.4A6.22,6.22,0,0,1,121,46.48V66.33A1.83,1.83,0,0,1,119.19,68.15Zm-31.8-3.64h30v-18a2.59,2.59,0,0,0-2.58-2.58H88.4a1,1,0,0,0-1,1Z"/><path class="cls-1" d="M102.37,237.53h0a1.83,1.83,0,0,1-1.51-.8l-16.8-25.21a1.8,1.8,0,0,1-.3-1V196.79A1.82,1.82,0,0,1,85.57,195h33.62a1.83,1.83,0,0,1,1.82,1.82v13.73a1.77,1.77,0,0,1-.31,1l-16.82,25.21A1.81,1.81,0,0,1,102.37,237.53ZM87.39,210l15,22.48,15-22.48V198.61h-30V210Z"/><path class="cls-1" d="M171.83,234.91A30.94,30.94,0,0,1,140.94,204v-3.16a1.82,1.82,0,1,1,3.63,0V204a27.27,27.27,0,1,0,54.54,0V55.93H144.57V170.58a1.82,1.82,0,1,1-3.63,0V54.11a1.81,1.81,0,0,1,1.81-1.81h58.17a1.81,1.81,0,0,1,1.82,1.81V204A31,31,0,0,1,171.83,234.91Z"/><path class="cls-1" d="M206,55.93H137.71a1.82,1.82,0,0,1-1.82-1.82V42.36a1.82,1.82,0,0,1,1.82-1.82H206a1.82,1.82,0,0,1,1.82,1.82V54.11A1.82,1.82,0,0,1,206,55.93ZM139.52,52.3h64.62V44.17H139.52Z"/><path class="cls-1" d="M200.92,78.3H166.24a1.82,1.82,0,0,1,0-3.63h34.68a1.82,1.82,0,1,1,0,3.63Z"/><path class="cls-1" d="M200.92,90.33H178a1.82,1.82,0,0,1,0-3.63h22.93a1.82,1.82,0,1,1,0,3.63Z"/><path class="cls-1" d="M200.92,102.34H166.24a1.82,1.82,0,0,1,0-3.63h34.68a1.82,1.82,0,1,1,0,3.63Z"/><path class="cls-1" d="M200.92,114.38H178a1.82,1.82,0,0,1,0-3.63h22.93a1.82,1.82,0,1,1,0,3.63Z"/><path class="cls-1" d="M200.92,126.39H166.24a1.82,1.82,0,0,1,0-3.63h34.68a1.82,1.82,0,1,1,0,3.63Z"/><path class="cls-1" d="M200.92,138.42H178a1.82,1.82,0,0,1,0-3.63h22.93a1.82,1.82,0,1,1,0,3.63Z"/><path class="cls-1" d="M200.92,150.46H166.24a1.82,1.82,0,0,1,0-3.64h34.68a1.82,1.82,0,1,1,0,3.64Z"/><path class="cls-1" d="M200.92,162.49H178a1.82,1.82,0,0,1,0-3.63h22.93a1.82,1.82,0,1,1,0,3.63Z"/><path class="cls-1" d="M200.92,174.5H166.24a1.82,1.82,0,0,1,0-3.63h34.68a1.82,1.82,0,1,1,0,3.63Z"/><path class="cls-1" d="M200.92,186.53H178a1.82,1.82,0,0,1,0-3.63h22.93a1.82,1.82,0,1,1,0,3.63Z"/><path class="cls-1" d="M14,194H2.82A1.81,1.81,0,0,1,1,192.17V2.82A1.81,1.81,0,0,1,2.82,1H266.43a1.81,1.81,0,0,1,1.82,1.82v9.27a1.82,1.82,0,0,1-1.82,1.82H236.75a1.82,1.82,0,1,1,0-3.63h27.87V4.63H4.63V190.35h7.51V152.4a1.82,1.82,0,1,1,3.63,0v39.77A1.81,1.81,0,0,1,14,194Zm0-70a1.81,1.81,0,0,1-1.81-1.81v-110A1.81,1.81,0,0,1,14,10.28H206.49a1.82,1.82,0,0,1,0,3.63H15.77V122.14A1.81,1.81,0,0,1,14,124Z"/><path class="cls-1" d="M277.57,229.26H253.93a1.81,1.81,0,0,1-1.81-1.81v-66a1.82,1.82,0,0,1,3.63,0v64.14h20V39.91h-20v91.33a1.82,1.82,0,0,1-3.63,0V38.09a1.81,1.81,0,0,1,1.81-1.81h23.64a1.82,1.82,0,0,1,1.82,1.81V227.45A1.82,1.82,0,0,1,277.57,229.26Z"/></g></g></svg>