<svg xmlns="http://www.w3.org/2000/svg" viewBox="0 0 102 88.71"><defs><style>.cls-1{stroke:#0005ff;stroke-miterlimit:10;stroke-width:2px;}</style></defs><title>m-logo</title><g id="Layer_2" data-name="Layer 2"><g id="Layer_1-2" data-name="Layer 1"><path class="cls-1" d="M100.81,15.37,76,1.05a.39.39,0,0,0-.39,0L51,15.26,26.39,1.05a.39.39,0,0,0-.39,0L1.19,15.37a.39.39,0,0,0-.19.34V73a.39.39,0,0,0,.19.33L26,87.65a.39.39,0,0,0,.39,0L51,73.44,75.61,87.65a.39.39,0,0,0,.39,0l24.81-14.32A.39.39,0,0,0,101,73V15.71A.39.39,0,0,0,100.81,15.37ZM25.42,30,1.77,43.68V16.38ZM51,16.16,75,30,51,43.91,27,30ZM26.19,30.48l24,13.87-24,13.88-24-13.88Zm.39,28.42L50.61,45V72.77l-24,13.88ZM51.39,45l24,13.88V86.65l-24-13.88ZM75.81,58.23l-24-13.88,24-13.87,24,13.87ZM76.58,30l23.65-13.65v27.3Zm-.77-28.2,24,13.88-24,13.87-24-13.87Zm-49.62,0,24,13.88-24,13.87-24-13.87ZM1.77,45l24,13.88V86.65l-24-13.88ZM76.19,86.65V58.9l24-13.88V72.77Z"/></g></g></svg>