<svg xmlns="http://www.w3.org/2000/svg" viewBox="0 0 282 255.65"><defs><style>.cls-1{fill:#0005ff;}</style></defs><title>m-ui</title><g id="Layer_2" data-name="Layer 2"><g id="Layer_1-2" data-name="Layer 1"><path class="cls-1" d="M9.75,0A9.83,9.83,0,0,0,0,9.75V191a9.83,9.83,0,0,0,9.75,9.75H167.33l13.48,39.6a3.32,3.32,0,0,0,6.33-.2l8.5-30.07,39.71,44.48a3.31,3.31,0,0,0,4.66.31l19.08-17.11a3.31,3.31,0,0,0,.31-4.66l-28.93-32.35h41.89A9.74,9.74,0,0,0,282,191V9.75A9.75,9.75,0,0,0,272.36,0Zm0,6.64H272.36a3,3,0,0,1,3,3.11V191a3,3,0,0,1-3,3.11h-47.8l-4.87-5.49,30.9-5.08a3.33,3.33,0,0,0,.83-6.33L148.88,128.66a3.4,3.4,0,0,0-1.66-.31,3.32,3.32,0,0,0-3.06,3.56,3.16,3.16,0,0,0,.16.8l20.84,61.37H9.75A3.07,3.07,0,0,1,6.63,191V9.74A3.07,3.07,0,0,1,9.75,6.63Zm9.74,11.19V32.14H33.07V17.83Zm22.6,0V32.14H55.67V17.83Zm22.5,0V32.14H78.28V17.83Zm22.6,0V32.14h13.58V17.83ZM132.39,43a3.3,3.3,0,0,0-2.79,3.11l-2.18,37.42a3.32,3.32,0,1,0,6.63.48V84l2.18-37.43A3.32,3.32,0,0,0,133.17,43a2.92,2.92,0,0,0-.78,0Zm-47,16.38a3.31,3.31,0,0,0-2,5.49l25,28a3.31,3.31,0,1,0,5.3-4,3.2,3.2,0,0,0-.43-.47L88.44,60.55a3.29,3.29,0,0,0-3-1.14Zm92,5.18a3.34,3.34,0,0,0-2,.93l-28,24.89a3.34,3.34,0,1,0,4.46,5l27.89-25a3.32,3.32,0,0,0-2.39-5.81ZM63.24,104.2a3.35,3.35,0,1,0,.94,6.63l37.32,2.08a3.33,3.33,0,0,0,.48-6.64h-.06L64.59,104.2a3,3,0,0,0-1,0,1.6,1.6,0,0,0-.31,0Zm92.59,5.28a3.32,3.32,0,0,0,.62,6.54l37.32,2.17a3.32,3.32,0,1,0,.48-6.63h-.06l-37.43-2.08a3.62,3.62,0,0,0-.93,0Zm-47.69,16.7a3.28,3.28,0,0,0-1.66.83l-28,24.88a3.34,3.34,0,0,0,4.46,5L110.83,132a3.32,3.32,0,0,0-2.69-5.8Zm19,9.12a3.32,3.32,0,0,0-2.8,3.11l-2.18,37.43a3.32,3.32,0,0,0,6.64.31L131,138.83a3.32,3.32,0,0,0-3.06-3.56,3.4,3.4,0,0,0-.78,0ZM153,138,239,178.64,212.64,183a3.32,3.32,0,0,0-2.69,3.85,3.27,3.27,0,0,0,.72,1.54l41.57,46.55L238,247.68l-41.47-46.55a3.33,3.33,0,0,0-4.68-.35,3.37,3.37,0,0,0-1,1.6l-7.26,25.71L153,138Z"/></g></g></svg>