<svg version="1.1" xmlns="http://www.w3.org/2000/svg" xmlns:xlink="http://www.w3.org/1999/xlink" x="0px" y="0px" xml:space="preserve"
    viewBox="0 0 128.3 27.4" enable-background="new 0 0 128.3 27.4" width="100%" height="100%">
    <path d="M14,1H6.6V1.6H9V13.8c0,3.7-1,4.7-3.3,4.7c-1.4,0-1.7-1.1-1.7-1.6c0-1.3-0.1-2.2-1.3-2.2c-1.2,0-1.4,1.2-1.4,1.6c0,1.7,0.8,3,4.1,3c4,0,6.1-1.3,6.1-5.8V1.6h2.4V1H14z M15,16.5c-0.4,0-0.8,0.101-1,0.4c-0.3,0.3-0.4,0.6-0.4,1c0,0.399,0.1,0.7,0.4,1s0.6,0.399,1,0.399s0.7-0.1,1-0.399s0.4-0.601,0.4-1c0-0.4-0.1-0.7-0.4-1S15.4,16.5,15,16.5 M31.4,16.5c-0.4,0-0.7,0.101-1,0.4c-0.3,0.3-0.4,0.6-0.4,1c0,0.399,0.1,0.7,0.4,1c0.3,0.3,0.6,0.399,1,0.399s0.8-0.1,1-0.399c0.3-0.3,0.4-0.601,0.4-1c0-0.4-0.1-0.7-0.4-1C32.1,16.6,31.8,16.5,31.4,16.5 M26.2,1H19V1.6h2.1v14c0,1.1-0.1,1.399-0.2,1.699C20.8,17.7,20.5,17.9,20,18.1c-0.3,0.1-0.8,0.199-1.5,0.199V18.9h7.8V18.3c-0.7,0-1.2-0.1-1.5-0.199	c-0.5-0.2-0.8-0.5-0.9-0.801c-0.1-0.3-0.2-0.6-0.2-1.1v-4.8h1.9c5.6,0,7.2-2.2,7.2-5.2C32.8,3.1,31.9,1,26.2,1 M25.2,10.7h-1.5v-9H25c4.3,0,5.3,1.8,5.3,4.6C30.3,9.2,28.6,10.7,25.2,10.7 M55.9,17.2c-0.1-0.3-0.2-0.7-0.2-1.2V1.6h1.9V1H53C52.9,1.2,47.5,14.6,47.5,14.6l-0.1,0.1c-0.1,0-0.1,0-0.1-0.1c0,0-5.8-13.5-5.8-13.601h-5.1V1.6h2.2V15.5v1.3c0,0.301-0.1,0.601-0.3,0.9c-0.2,0.3-0.5,0.5-0.8,0.6c-0.2,0.101-0.6,0.101-1,0.101V19h5v-0.6c-0.4,0-0.6-0.101-0.9-0.101c-0.4-0.1-0.6-0.3-0.8-0.6c-0.2-0.2-0.3-0.5-0.3-0.9l-0.1-1.3v-12h0.3c0,0,6.5,15.2,6.6,15.4h0.5L53,3.6h0.2V16c0,0.5-0.1,0.9-0.2,1.3c-0.1,0.4-0.4,0.601-0.8,0.801c-0.3,0.1-0.7,0.199-1.3,0.199V18.9h7V18.3c-0.6,0-1-0.1-1.3-0.199C56.3,17.9,56,17.6,55.9,17.2 M65.4,5.8c-3.8,0-6.1,2.5-6.1,6.801c0,6.399,5,6.8,6,6.8c2.1,0,6.1-1.3,6.1-6.9C71.4,8.1,68.8,5.8,65.4,5.8 M65.3,18.6c-2.8,0-3.3-1.4-3.3-5.9c0-3.5,0.2-6.1,3.3-6.1c3.3,0,3.3,2.699,3.3,5.899C68.6,17,67.8,18.6,65.3,18.6 M81.201,6c-2.201,0-3,1.3-3.601,2.7h-0.2c0,0-0.3-2-0.4-2.5c-0.899,0-4.399,0-4.399,0v0.7H75c0,0,0,2,0,2.7v6.1c0,0.9-0.1,1.5-0.299,1.9C74.5,18,73.9,18.3,73,18.3H72.6V19.1H80V18.3H79.6c-1,0-1.399-0.199-1.601-0.6c-0.199-0.4-0.299-1-0.299-1.9V11c0-1.5,1.199-3.3,2.6-3.3c1.5,0,1.4,2.2,3.1,1.3C84.201,8.5,84,6,81.201,6 M110.3,17.6c-0.801,0-1-0.4-1.1-1.2V14.8V9.4c0-1.2-0.201-1.9-0.9-2.601c-0.7-0.699-2-1-3.9-1c-1.8,0-3.1,0.301-4,1C99.6,7.4,99.201,8,99.201,8.9c0,0.399,0.1,0.7,0.299,0.8C99.701,9.9,100,10,100.3,10c0.699,0,1.1-0.399,1.3-1.3c0.101-0.7,0.3-1.1,0.601-1.5c0.399-0.4,1-0.6,1.699-0.6c0.9,0,1.6,0.199,1.9,0.699c0.3,0.5,0.5,1.101,0.5,1.9v2.1c-2.301,0.2-7.9,0.7-7.6,4.9c0.1,1.6,1.5,3.1,3.399,3.1c2.101,0,3.399-1.199,4.3-2.1c0.1,0.9,1,2,2.5,2c1.7,0,2.7-0.8,2.801-2.9h-0.4C111.3,17.1,110.8,17.6,110.3,17.6 M106.5,16.2v0.1l-0.1,0.101c-1.199,1.1-2.199,1.5-2.9,1.5c-1.799,0-2.1-1.5-2.1-2.2c0-2.4,3.301-3.6,5.1-3.6V16.2z M125.3,17.5c-0.2-0.399-0.5-1-0.5-1.899V9.8c0-0.8-0.1-1.6-0.4-2.1c-0.3-0.6-0.8-1-1.3-1.3C122.5,6.1,121.9,6,121.201,6C118.6,6,117.6,7.6,117,8.5H116.8l-0.5-2.3h-4v0.7c0.699,0,2,0,2,0v8.8c0,0.7-0.1,1.2-0.2,1.5c-0.101,0.4-0.399,0.7-0.7,0.8c-0.199,0.101-0.6,0.2-1.1,0.2V19h6.3v-0.8c-0.601-0.1-1.101-0.2-1.3-0.5c-0.2-0.3-0.4-0.9-0.4-1.8v-3.4c0-1.399,0-2.8,0.5-3.6c0.5-0.9,1.5-1.4,2.5-1.4s1.5,0.3,1.801,0.9c0.299,0.5,0.399,2,0.399,3v4.2c0,0.699,0.101,1.199,0,1.5C122,17.5,121.9,17.8,121.6,18c-0.2,0.2-0.601,0.2-1,0.3V19.1h6.101V18.3C126,18,125.5,17.8,125.3,17.5 M96.701,5.2c-0.4,0.1-0.601,0.5-0.801,1c-0.1,0.5-0.3,0.8-0.6,0.9C95,7.2,94.701,7.2,94.4,7c-0.699-0.6-1.9-1.3-4.1-1.3c-3.6,0-5.1,2.5-5.1,4.8c0,2.7,1,4,3.299,4.5c0.101,0,0.101,0.2,0,0.2C86.6,15.6,84.8,16.2,84.8,18c0,1.101,0.6,1.7,1.5,2.101c0.9,0.399,2.199,0.6,3.8,0.6c1.399,0,2.399,0.1,3,0.1c0.7,0.101,1.2,0.301,1.7,0.601c0.4,0.3,0.6,0.8,0.6,1.399c0,0.9-0.5,1.5-1.4,2.101c-0.899,0.5-2,0.7-3.5,0.7c-1.199,0-2.299-0.101-3.199-0.7c-0.7-0.4-0.801-1.2-0.7-1.8c0.101-0.601-0.101-1.2-0.8-1.4c-0.4-0.1-0.9,0.1-1.1,0.5C84.5,22.5,84.4,22.9,84.4,23.4c0,1.5,1.2,2.2,2.1,2.5c1.4,0.399,2.301,0.5,3.5,0.5c1.701,0,3-0.3,4-0.7c1-0.5,1.601-1.1,2-1.8c0.4-0.7,0.601-1.4,0.601-2.101C96.6,20.9,96.4,20.1,96,19.6c-1.299-1.7-3.1-1.5-7.1-1.7c-1.9,0-2.3-0.4-2.3-1c0-0.9,0.7-1.2,3.5-1.7c2.8-0.4,5.399-1.5,5.399-4.8c0-1-0.199-1.8-0.5-2.4C95.6,8.1,96.1,8.1,96.6,8c0.601-0.2,0.899-0.5,1.101-0.8C97.9,6.8,98,6.4,97.8,6.1C97.9,5.3,97.4,5,96.701,5.2 M90.4,14.6c-1.699,0-2.6-0.601-2.6-4c0-2.4,0.8-4.2,2.6-4.2c2.1,0,2.7,1.6,2.7,4.1C93.1,14.1,92,14.6,90.4,14.6"
        fill="#54301a"></path>
</svg>